<svg id="Layer_2" data-name="Layer 2" xmlns="http://www.w3.org/2000/svg" viewBox="0 0 533.91 434"><defs><style>.cls-1{fill:#3f79e0;}</style></defs><title>Playlist-js</title><rect class="cls-1" width="326.89" height="44" rx="7" ry="7"/><rect class="cls-1" y="98" width="326.89" height="44" rx="7" ry="7"/><rect class="cls-1" y="195.5" width="326.89" height="44" rx="7" ry="7"/><rect class="cls-1" y="293" width="181.47" height="44" rx="7" ry="7"/><rect class="cls-1" y="390" width="181.47" height="44" rx="7" ry="7"/><path class="cls-1" d="M467,190V384s3.33,41.67-51,70.33S318.33,446,318.33,446,305,436.33,302,409.67,322.67,359,322.67,359s43.67-44.33,93.33-29.67V40s28.59,41.34,81.83,72c59.92,34.5,77.83,81.33,77.83,81.33S613.33,266.67,545,327c0,0,15.4-47.29,0-76a114.15,114.15,0,0,0-24.33-31S497.33,200,467,190Z" transform="translate(-52.11 -34)"/></svg>